<svg width="66" height="67" viewBox="0 0 66 67" fill="none" xmlns="http://www.w3.org/2000/svg">
<path d="M63.7533 50.9877L15.1041 65.924C14.298 66.1712 13.4267 66.088 12.6819 65.6929C11.9371 65.2978 11.3798 64.623 11.1324 63.8169L5.44334 45.2907L0.720357 29.9051L0.628906 29.6109L1.27686 28.8635L22.4191 4.48562C22.5159 4.37276 22.6427 4.28968 22.7849 4.24604C22.927 4.20239 23.0787 4.19998 23.2221 4.23906L54.4146 12.56L55.3569 12.8104L55.6471 13.7487L65.8604 47.0125C66.1071 47.819 66.0238 48.6905 65.6288 49.4357C65.2338 50.181 64.5593 50.7391 63.7533 50.9877Z" fill="#2966E0"/>
<path d="M55.6473 13.7473L37.2085 35.4699V34.2773L54.4149 12.5586L55.3571 12.809L55.6473 13.7473Z" fill="#208AF2"/>
<path d="M63.8099 50.9671C63.7738 50.979 63.7348 50.979 63.6986 50.9671L33.9214 39.9109C33.8974 39.9018 33.8759 39.8872 33.8585 39.8682C33.8412 39.8492 33.8285 39.8265 33.8216 39.8017C33.8146 39.777 33.8136 39.751 33.8185 39.7257C33.8234 39.7005 33.8342 39.6768 33.8499 39.6565L38.8273 33.4468L55.167 13.0483C55.1849 13.0251 55.2088 13.0073 55.2362 12.9968C55.2635 12.9864 55.2932 12.9837 55.322 12.989C55.3508 12.9943 55.3775 13.0075 55.3993 13.0271C55.421 13.0467 55.437 13.0719 55.4453 13.0999L65.7898 46.7967L65.8576 47.0114C66.1033 47.8076 66.0263 48.6684 65.6433 49.4083C65.2603 50.1482 64.6018 50.708 63.8099 50.9671Z" fill="#A2BDFF"/>
<path d="M32.0204 38.6628L31.7501 39.2273L0.923124 29.7017C0.894943 29.693 0.864917 29.6921 0.836283 29.6992C0.807648 29.7063 0.781491 29.7211 0.760629 29.7419C0.739767 29.7628 0.724992 29.7889 0.717895 29.8176C0.710799 29.8462 0.71165 29.8762 0.720357 29.9044L0.628906 29.6102L1.27686 28.8628L32.0204 38.6628Z" fill="#208AF2"/>
<path d="M33.5829 40.0142L15.1401 65.8755C15.1189 65.9076 15.0862 65.9304 15.0487 65.9391C14.2479 66.1692 13.3888 66.0757 12.6564 65.6786C11.924 65.2815 11.3768 64.6127 11.1327 63.8161L5.44358 45.2898L0.720601 29.9043C0.711894 29.8761 0.711043 29.8461 0.718139 29.8174C0.725236 29.7888 0.740012 29.7626 0.760873 29.7418C0.781735 29.7209 0.807893 29.7062 0.836527 29.6991C0.865161 29.692 0.895188 29.6929 0.923368 29.7016L31.7501 39.2271L33.4991 39.7678C33.5233 39.7754 33.5454 39.7885 33.5635 39.8063C33.5817 39.824 33.5954 39.8457 33.6035 39.8697C33.6117 39.8937 33.6141 39.9193 33.6105 39.9444C33.6069 39.9695 33.5974 39.9934 33.5829 40.0142Z" fill="#A2BDFF"/>
<path d="M63.752 50.9865L15.1059 65.9226C14.3693 66.1464 13.5767 66.0961 12.8743 65.7812C12.1719 65.4662 11.6071 64.9078 11.2843 64.209C11.2299 64.0896 11.2057 63.9587 11.214 63.8278C11.2223 63.6969 11.2627 63.57 11.3318 63.4585L30.7192 31.8782C30.8204 31.7132 30.9784 31.5909 31.1634 31.534C31.3485 31.4772 31.5479 31.4899 31.7243 31.5696L65.4933 46.829C65.6131 46.8826 65.7177 46.9649 65.798 47.0687C65.8783 47.1724 65.9317 47.2943 65.9536 47.4237C66.0785 48.1833 65.9244 48.9624 65.5198 49.6173C65.1152 50.2721 64.4873 50.7585 63.752 50.9865Z" fill="#699CFF"/>
<path d="M54.1493 1.40714C54.1205 1.40712 54.0921 1.39974 54.067 1.38571C54.0418 1.37168 54.0206 1.35146 54.0054 1.32696C53.9902 1.30246 53.9815 1.27449 53.9802 1.2457C53.9788 1.2169 53.9848 1.18824 53.9976 1.16241C54.1428 0.869075 54.2203 0.708205 54.2206 0.707799C54.2298 0.686949 54.243 0.668159 54.2596 0.652548C54.2762 0.636937 54.2957 0.624824 54.3171 0.616937C54.3384 0.60905 54.3612 0.605548 54.3839 0.60664C54.4067 0.607733 54.4289 0.613397 54.4494 0.623295C54.47 0.633192 54.4883 0.647122 54.5033 0.664249C54.5183 0.681377 54.5297 0.701351 54.5368 0.722982C54.5439 0.744612 54.5466 0.767455 54.5447 0.790145C54.5427 0.812834 54.5363 0.834905 54.5257 0.855042C54.5257 0.855042 54.4475 1.017 54.301 1.31284C54.287 1.34113 54.2654 1.36494 54.2386 1.3816C54.2118 1.39826 54.1809 1.40711 54.1493 1.40714Z" fill="white"/>
<path d="M37.0351 25.5513C37.0029 25.5513 36.9713 25.5421 36.9441 25.5247C36.9169 25.5074 36.8952 25.4827 36.8816 25.4534C36.868 25.4242 36.863 25.3917 36.8672 25.3597C36.8714 25.3277 36.8847 25.2976 36.9054 25.2729C37.1244 25.0119 37.3325 24.753 37.5239 24.5033C37.5513 24.4677 37.5917 24.4443 37.6363 24.4384C37.6808 24.4326 37.7259 24.4446 37.7616 24.472C37.7972 24.4993 37.8206 24.5397 37.8265 24.5843C37.8323 24.6289 37.8203 24.6739 37.7929 24.7096C37.5985 24.9632 37.3873 25.226 37.1651 25.4908C37.1492 25.5098 37.1293 25.525 37.1068 25.5355C37.0844 25.5459 37.0599 25.5513 37.0351 25.5513ZM38.2418 23.9705C38.2111 23.9705 38.1808 23.962 38.1545 23.9461C38.1281 23.9302 38.1066 23.9074 38.0922 23.8802C38.0778 23.853 38.0711 23.8224 38.0728 23.7916C38.0745 23.7609 38.0845 23.7311 38.1019 23.7057C38.2957 23.4206 38.4712 23.1409 38.6233 22.8745C38.6343 22.8552 38.6491 22.8382 38.6667 22.8246C38.6843 22.8109 38.7044 22.8009 38.7259 22.795C38.7473 22.7892 38.7697 22.7876 38.7918 22.7904C38.8139 22.7932 38.8352 22.8003 38.8545 22.8114C38.8739 22.8224 38.8908 22.8372 38.9045 22.8547C38.9181 22.8723 38.9281 22.8925 38.934 22.9139C38.9399 22.9354 38.9414 22.9578 38.9386 22.9799C38.9358 23.002 38.9287 23.0233 38.9177 23.0426C38.7611 23.3167 38.581 23.6039 38.3821 23.8963C38.3666 23.9192 38.3457 23.9379 38.3212 23.9508C38.2968 23.9637 38.2696 23.9705 38.2419 23.9705H38.2418ZM38.207 22.3551H38.2042C37.8616 22.3566 37.5229 22.2826 37.2123 22.1381C37.1921 22.1287 37.174 22.1154 37.159 22.099C37.1439 22.0826 37.1323 22.0634 37.1247 22.0425C37.1171 22.0215 37.1137 21.9993 37.1147 21.9771C37.1156 21.9549 37.121 21.933 37.1304 21.9129C37.1398 21.8927 37.1531 21.8746 37.1695 21.8596C37.1859 21.8445 37.2052 21.8329 37.2261 21.8253C37.247 21.8177 37.2692 21.8142 37.2914 21.8152C37.3137 21.8162 37.3355 21.8216 37.3557 21.831C37.6215 21.9543 37.9114 22.0174 38.2044 22.0158C38.218 22.0158 38.2324 22.0158 38.2463 22.0158H38.2496C38.2718 22.0156 38.2939 22.0198 38.3145 22.0281C38.3352 22.0364 38.354 22.0487 38.3699 22.0643C38.3857 22.0799 38.3984 22.0985 38.4071 22.119C38.4158 22.1394 38.4204 22.1614 38.4206 22.1837C38.4208 22.2059 38.4166 22.228 38.4083 22.2487C38.4 22.2693 38.3877 22.2881 38.3721 22.304C38.3565 22.3199 38.3379 22.3325 38.3174 22.3412C38.2969 22.3499 38.2749 22.3545 38.2527 22.3547C38.2375 22.355 38.2223 22.3551 38.2071 22.3551H38.207ZM39.2164 22.2398C39.1774 22.229 39.142 22.208 39.1138 22.179C39.0857 22.1499 39.0658 22.1139 39.0562 22.0746C39.0466 22.0354 39.0476 21.9942 39.0592 21.9555C39.0708 21.9167 39.0925 21.8818 39.1221 21.8542C39.222 21.6067 39.3014 21.3514 39.3594 21.0908C39.3639 21.0689 39.3727 21.048 39.3852 21.0295C39.3978 21.0109 39.414 20.9951 39.4327 20.9828C39.4515 20.9706 39.4725 20.9621 39.4945 20.958C39.5165 20.954 39.5392 20.9543 39.5611 20.959C39.583 20.9637 39.6038 20.9727 39.6222 20.9855C39.6406 20.9983 39.6562 21.0146 39.6683 21.0335C39.6804 21.0524 39.6886 21.0734 39.6924 21.0955C39.6963 21.1176 39.6957 21.1402 39.6908 21.1621C39.6529 21.3354 39.6053 21.5065 39.5484 21.6746C39.7031 21.6019 39.8615 21.5177 40.0222 21.4226C40.0608 21.4015 40.106 21.3962 40.1484 21.4078C40.1908 21.4194 40.2271 21.4471 40.2495 21.4849C40.2719 21.5227 40.2787 21.5678 40.2685 21.6105C40.2583 21.6533 40.2319 21.6904 40.1948 21.7141C39.935 21.8696 39.6629 22.0036 39.3813 22.1148L39.3721 22.1364C39.3591 22.167 39.3374 22.193 39.3097 22.2114C39.2821 22.2297 39.2496 22.2395 39.2164 22.2396L39.2164 22.2398ZM36.4694 21.589C36.4282 21.5891 36.3885 21.5741 36.3576 21.547C36.0872 21.3207 35.8589 21.0483 35.6834 20.7424C35.6718 20.7227 35.6643 20.7009 35.6614 20.6783C35.6584 20.6557 35.6601 20.6327 35.6662 20.6108C35.6723 20.5888 35.6828 20.5683 35.6971 20.5505C35.7113 20.5327 35.729 20.5179 35.7491 20.5071C35.7692 20.4963 35.7913 20.4897 35.814 20.4876C35.8367 20.4855 35.8596 20.4881 35.8813 20.495C35.903 20.502 35.9231 20.5133 35.9403 20.5282C35.9576 20.5432 35.9716 20.5614 35.9817 20.5819C36.1381 20.852 36.341 21.0925 36.5809 21.2922C36.6069 21.3149 36.6252 21.345 36.6336 21.3784C36.6419 21.4119 36.6399 21.4471 36.6277 21.4793C36.6156 21.5116 36.5939 21.5393 36.5655 21.5589C36.5372 21.5785 36.5036 21.589 36.4691 21.589H36.4694ZM40.9307 21.1783C40.8952 21.1783 40.8607 21.1673 40.8318 21.1466C40.803 21.126 40.7814 21.0969 40.77 21.0633C40.7586 21.0297 40.758 20.9934 40.7683 20.9595C40.7786 20.9256 40.7993 20.8958 40.8274 20.8742C41.0707 20.6879 41.3242 20.476 41.5808 20.2443C41.5973 20.2294 41.6166 20.2179 41.6376 20.2104C41.6586 20.203 41.6808 20.1997 41.703 20.2009C41.7253 20.202 41.747 20.2075 41.7671 20.2171C41.7872 20.2266 41.8053 20.2401 41.8202 20.2566C41.8351 20.2731 41.8466 20.2924 41.854 20.3134C41.8615 20.3343 41.8648 20.3566 41.8636 20.3788C41.8625 20.401 41.857 20.4228 41.8474 20.4429C41.8378 20.463 41.8244 20.481 41.8079 20.496C41.5446 20.7336 41.2841 20.9514 41.0336 21.1433C41.004 21.1658 40.9679 21.1779 40.9307 21.1777L40.9307 21.1783ZM39.5777 20.3079C39.537 20.3078 39.4977 20.2932 39.4669 20.2665C39.4362 20.2399 39.416 20.2031 39.4102 20.1628C39.3735 19.8654 39.2459 19.5866 39.0448 19.3645C39.0144 19.3315 38.9984 19.2878 39.0002 19.2431C39.002 19.1983 39.0214 19.156 39.0543 19.1255C39.0871 19.095 39.1307 19.0788 39.1755 19.0804C39.2203 19.082 39.2627 19.1013 39.2933 19.134C39.5414 19.4063 39.6994 19.7485 39.7456 20.1139C39.7488 20.136 39.7477 20.1584 39.7422 20.18C39.7367 20.2016 39.7271 20.2219 39.7138 20.2397C39.7005 20.2576 39.6838 20.2726 39.6647 20.284C39.6456 20.2954 39.6244 20.3029 39.6024 20.3061C39.5942 20.3073 39.5859 20.3079 39.5777 20.3079ZM35.7257 19.8736C35.6984 19.8736 35.6715 19.867 35.6473 19.8544C35.6231 19.8418 35.6023 19.8235 35.5867 19.8011C35.571 19.7787 35.561 19.7529 35.5575 19.7259C35.5541 19.6988 35.5572 19.6713 35.5666 19.6456C35.6838 19.327 35.9394 19.0495 36.3065 18.8434C36.3457 18.8214 36.392 18.8158 36.4353 18.828C36.4786 18.8401 36.5153 18.869 36.5373 18.9082C36.5593 18.9474 36.5649 18.9937 36.5527 19.037C36.5406 19.0803 36.5117 19.117 36.4725 19.139C36.1769 19.305 35.9737 19.5206 35.8848 19.7626C35.8728 19.7952 35.8511 19.8233 35.8227 19.8431C35.7942 19.863 35.7604 19.8736 35.7257 19.8736ZM42.4132 19.8494C42.3798 19.8493 42.3471 19.8395 42.3193 19.8209C42.2915 19.8024 42.2698 19.7761 42.2569 19.7453C42.244 19.7145 42.2405 19.6805 42.2468 19.6477C42.2532 19.6149 42.2691 19.5847 42.2925 19.5609C42.5134 19.3372 42.7415 19.0947 42.9705 18.841C43.0006 18.8076 43.0427 18.7875 43.0876 18.7852C43.1325 18.7829 43.1765 18.7986 43.2098 18.8287C43.2432 18.8588 43.2632 18.9009 43.2655 18.9458C43.2678 18.9907 43.2522 19.0347 43.2221 19.0681C42.9897 19.3257 42.7582 19.5713 42.5339 19.7989C42.5181 19.8149 42.4994 19.8276 42.4786 19.8363C42.4579 19.8449 42.4357 19.8494 42.4132 19.8494ZM38.3199 18.9261C38.3049 18.9261 38.29 18.9241 38.2755 18.9201C37.9745 18.8422 37.6613 18.8223 37.3529 18.8615C37.3308 18.8642 37.3084 18.8625 37.287 18.8565C37.2655 18.8505 37.2455 18.8403 37.228 18.8266C37.2104 18.8129 37.1958 18.7958 37.1849 18.7764C37.174 18.757 37.167 18.7357 37.1643 18.7136C37.1616 18.6915 37.1633 18.6691 37.1693 18.6476C37.1753 18.6262 37.1855 18.6062 37.1992 18.5886C37.2129 18.5711 37.23 18.5565 37.2494 18.5456C37.2688 18.5346 37.2901 18.5276 37.3122 18.525C37.664 18.4805 38.021 18.5035 38.3642 18.5928C38.4039 18.6035 38.4384 18.6282 38.4612 18.6624C38.484 18.6966 38.4936 18.738 38.4881 18.7787C38.4827 18.8195 38.4627 18.8569 38.4317 18.884C38.4008 18.911 38.3611 18.9259 38.3199 18.9259V18.9261ZM43.7501 18.3723C43.7178 18.3723 43.6862 18.363 43.659 18.3457C43.6318 18.3283 43.6102 18.3036 43.5966 18.2743C43.583 18.245 43.578 18.2125 43.5822 18.1805C43.5865 18.1486 43.5998 18.1184 43.6205 18.0938C43.8256 17.8497 44.0366 17.5914 44.2477 17.3255C44.2614 17.3077 44.2785 17.2928 44.298 17.2817C44.3175 17.2706 44.339 17.2635 44.3613 17.2607C44.3836 17.258 44.4062 17.2597 44.4279 17.2658C44.4495 17.2719 44.4697 17.2822 44.4873 17.2962C44.5049 17.3102 44.5195 17.3275 44.5304 17.3472C44.5412 17.3668 44.548 17.3885 44.5504 17.4108C44.5528 17.4331 44.5508 17.4557 44.5444 17.4773C44.538 17.4988 44.5274 17.5188 44.5131 17.5362C44.3001 17.8046 44.0871 18.0656 43.8799 18.3119C43.864 18.3308 43.8442 18.346 43.8218 18.3565C43.7994 18.3669 43.775 18.3723 43.7503 18.3723H43.7501ZM44.9903 16.8124C44.9587 16.8123 44.9279 16.8035 44.9011 16.7869C44.8743 16.7703 44.8527 16.7466 44.8386 16.7184C44.8246 16.6901 44.8187 16.6586 44.8216 16.6272C44.8245 16.5958 44.8361 16.5659 44.8551 16.5407C45.0488 16.2844 45.2475 16.0157 45.4456 15.7422C45.472 15.7058 45.5117 15.6813 45.5561 15.6742C45.6005 15.6671 45.6459 15.678 45.6823 15.7043C45.7187 15.7307 45.7432 15.7704 45.7503 15.8148C45.7574 15.8592 45.7465 15.9046 45.7202 15.941C45.5207 16.2165 45.3206 16.487 45.1256 16.745C45.1098 16.7659 45.0894 16.7829 45.066 16.7946C45.0425 16.8062 45.0167 16.8123 44.9905 16.8124H44.9903ZM46.1601 15.1989C46.1291 15.1989 46.0987 15.1904 46.0723 15.1743C46.0458 15.1582 46.0243 15.1352 46.01 15.1077C45.9956 15.0802 45.9891 15.0494 45.9911 15.0185C45.9931 14.9876 46.0036 14.9578 46.0213 14.9324C46.206 14.668 46.3953 14.3921 46.584 14.113C46.6091 14.0757 46.6481 14.05 46.6922 14.0414C46.7364 14.0329 46.7821 14.0422 46.8193 14.0674C46.8566 14.0926 46.8823 14.1315 46.8909 14.1757C46.8994 14.2198 46.8901 14.2655 46.8649 14.3028C46.6751 14.5833 46.4853 14.8605 46.2994 15.1266C46.2837 15.1489 46.2629 15.1672 46.2387 15.1797C46.2145 15.1923 46.1876 15.1989 46.1603 15.1988L46.1601 15.1989ZM47.2761 13.5476C47.2455 13.5476 47.2155 13.5393 47.1893 13.5236C47.163 13.5079 47.1415 13.4855 47.127 13.4586C47.1125 13.4317 47.1055 13.4014 47.1068 13.3708C47.1082 13.3403 47.1177 13.3107 47.1344 13.2851C47.3137 13.0117 47.4958 12.7301 47.6756 12.4483C47.6998 12.4104 47.7381 12.3836 47.7819 12.3739C47.8258 12.3642 47.8718 12.3724 47.9097 12.3966C47.9476 12.4208 47.9743 12.459 47.984 12.5029C47.9937 12.5468 47.9855 12.5927 47.9614 12.6306C47.7808 12.9137 47.5979 13.1964 47.4179 13.4712C47.4025 13.4947 47.3815 13.5139 47.3568 13.5272C47.332 13.5406 47.3044 13.5475 47.2763 13.5475L47.2761 13.5476ZM48.3495 11.8663C48.3193 11.8663 48.2896 11.8582 48.2636 11.8429C48.2376 11.8275 48.2161 11.8055 48.2015 11.7791C48.1868 11.7527 48.1795 11.7228 48.1802 11.6926C48.181 11.6624 48.1898 11.633 48.2058 11.6073C48.3775 11.3315 48.5529 11.0464 48.7271 10.7599C48.7505 10.7215 48.7882 10.694 48.8319 10.6833C48.8756 10.6727 48.9217 10.6799 48.9601 10.7032C48.9985 10.7266 49.026 10.7643 49.0367 10.808C49.0473 10.8516 49.0401 10.8978 49.0168 10.9362C48.8418 11.2236 48.6658 11.5097 48.4935 11.7864C48.4782 11.8108 48.457 11.8308 48.4319 11.8447C48.4067 11.8587 48.3785 11.8659 48.3497 11.8659L48.3495 11.8663ZM49.3857 10.1637C49.3557 10.1636 49.3264 10.1557 49.3005 10.1406C49.2747 10.1255 49.2533 10.1039 49.2385 10.0779C49.2237 10.0518 49.2161 10.0224 49.2164 9.99244C49.2167 9.96251 49.2249 9.93321 49.2403 9.9075C49.4115 9.61997 49.58 9.3342 49.7457 9.0502C49.7568 9.03067 49.7716 9.01352 49.7893 8.99976C49.8071 8.986 49.8274 8.9759 49.849 8.97004C49.8707 8.96419 49.8933 8.9627 49.9156 8.96566C49.9378 8.96862 49.9593 8.97597 49.9786 8.98728C49.998 8.9986 50.015 9.01365 50.0285 9.03157C50.042 9.04949 50.0519 9.06991 50.0574 9.09166C50.063 9.1134 50.0642 9.13604 50.0609 9.15825C50.0577 9.18046 50.05 9.2018 50.0384 9.22103C49.8723 9.50576 49.7033 9.79238 49.5315 10.0809C49.5165 10.1061 49.4951 10.127 49.4696 10.1414C49.4441 10.1559 49.4153 10.1635 49.3859 10.1635L49.3857 10.1637ZM50.3908 8.44225C50.3611 8.44222 50.3319 8.4344 50.3062 8.41955C50.2805 8.40471 50.2591 8.38338 50.2442 8.35768C50.2294 8.33199 50.2215 8.30283 50.2214 8.27314C50.2214 8.24345 50.2291 8.21426 50.2439 8.1885C50.4114 7.89605 50.5752 7.60746 50.7353 7.32273C50.7461 7.30324 50.7607 7.28608 50.7782 7.27224C50.7958 7.2584 50.8158 7.24815 50.8373 7.24209C50.8588 7.23603 50.8812 7.23427 50.9034 7.23691C50.9256 7.23955 50.947 7.24654 50.9664 7.25747C50.9859 7.26841 51.003 7.28309 51.0167 7.30065C51.0305 7.31822 51.0407 7.33833 51.0466 7.35983C51.0526 7.38133 51.0543 7.4038 51.0515 7.42595C51.0488 7.4481 51.0417 7.46949 51.0307 7.48889C50.8703 7.77402 50.7061 8.06327 50.538 8.35662C50.5231 8.38247 50.5017 8.40394 50.4759 8.41886C50.4501 8.43379 50.4208 8.44164 50.391 8.44164L50.3908 8.44225ZM51.3683 6.70461C51.3388 6.70458 51.3099 6.69686 51.2843 6.68222C51.2587 6.66758 51.2374 6.64653 51.2225 6.62114C51.2075 6.59574 51.1994 6.56689 51.199 6.53742C51.1986 6.50795 51.2059 6.47889 51.2202 6.4531C51.3849 6.15482 51.5445 5.8637 51.6988 5.57974C51.7203 5.54025 51.7565 5.5109 51.7997 5.49815C51.8428 5.48541 51.8892 5.49031 51.9286 5.51178C51.9681 5.53325 51.9975 5.56952 52.0102 5.61263C52.023 5.65573 52.0181 5.70214 51.9966 5.74163C51.842 6.02595 51.6821 6.31777 51.5168 6.61709C51.5022 6.64352 51.4807 6.66553 51.4546 6.68084C51.4285 6.69616 51.3988 6.70423 51.3686 6.7042L51.3683 6.70461ZM52.3207 4.95233C52.2914 4.95228 52.2627 4.94465 52.2372 4.93019C52.2118 4.91574 52.1905 4.89494 52.1755 4.86983C52.1605 4.84472 52.1522 4.81615 52.1515 4.7869C52.1508 4.75765 52.1577 4.72872 52.1715 4.70292C52.3352 4.39655 52.4907 4.1031 52.6381 3.82258C52.6482 3.80244 52.6622 3.78452 52.6793 3.76986C52.6964 3.7552 52.7162 3.7441 52.7377 3.73721C52.7591 3.73032 52.7817 3.72777 52.8042 3.72971C52.8266 3.73166 52.8485 3.73806 52.8684 3.74854C52.8883 3.75902 52.906 3.77338 52.9203 3.79076C52.9347 3.80815 52.9454 3.82821 52.9519 3.84979C52.9583 3.87136 52.9605 3.89401 52.9581 3.91642C52.9557 3.93882 52.9489 3.96053 52.938 3.98026C52.7907 4.26079 52.6347 4.55491 52.4703 4.86264C52.4558 4.88963 52.4342 4.91219 52.4079 4.92791C52.3816 4.94363 52.3516 4.95193 52.3209 4.95192L52.3207 4.95233ZM53.2487 3.18602C53.2197 3.18599 53.1911 3.1785 53.1657 3.16424C53.1404 3.14998 53.1192 3.12945 53.1041 3.10461C53.0889 3.07977 53.0805 3.05147 53.0795 3.02241C53.0785 2.99336 53.0849 2.96454 53.0983 2.93871C53.2669 2.61229 53.4188 2.31503 53.5525 2.05125C53.5625 2.03127 53.5763 2.01346 53.5932 1.99884C53.6101 1.98423 53.6297 1.97309 53.6509 1.96608C53.6721 1.95907 53.6945 1.95632 53.7168 1.95799C53.7391 1.95967 53.7608 1.96572 53.7807 1.97582C53.8006 1.98592 53.8184 1.99985 53.8329 2.01682C53.8474 2.0338 53.8584 2.05347 53.8653 2.07472C53.8722 2.09597 53.8748 2.11837 53.873 2.14064C53.8713 2.1629 53.8651 2.18459 53.8549 2.20446C53.7209 2.46885 53.5686 2.76713 53.3996 3.09429C53.3852 3.12185 53.3636 3.14494 53.3371 3.16104C53.3105 3.17714 53.2801 3.18564 53.249 3.18561L53.2487 3.18602Z" fill="white"/>
<path d="M36.0547 26.6604C36.0218 26.6604 35.9895 26.6508 35.9619 26.6327C35.9343 26.6147 35.9126 26.589 35.8994 26.5587C35.8862 26.5285 35.8821 26.4951 35.8876 26.4626C35.8932 26.4301 35.908 26.3999 35.9305 26.3757C36.0476 26.2494 36.1613 26.1249 36.2716 26.0022C36.2864 25.9852 36.3043 25.9713 36.3245 25.9614C36.3447 25.9514 36.3667 25.9456 36.3891 25.9442C36.4116 25.9428 36.4341 25.9459 36.4553 25.9533C36.4766 25.9607 36.4962 25.9722 36.5129 25.9873C36.5296 26.0023 36.5432 26.0206 36.5528 26.0409C36.5624 26.0612 36.5679 26.0833 36.5689 26.1058C36.5699 26.1283 36.5664 26.1507 36.5587 26.1718C36.5509 26.193 36.539 26.2123 36.5237 26.2288C36.4122 26.3528 36.2973 26.4786 36.179 26.6061C36.1632 26.6233 36.1439 26.637 36.1226 26.6463C36.1012 26.6556 36.0781 26.6605 36.0547 26.6604Z" fill="white"/>
<path d="M28.958 15.7505C28.9291 15.7505 28.9008 15.7431 28.8756 15.7291C28.8504 15.7151 28.8292 15.6949 28.814 15.6704C28.7988 15.6459 28.7901 15.6179 28.7888 15.5891C28.7874 15.5603 28.7934 15.5317 28.8062 15.5058C28.9442 15.2267 29.0188 15.0556 29.0195 15.0539C29.0376 15.0129 29.0711 14.9807 29.1128 14.9643C29.1546 14.948 29.2011 14.9488 29.2422 14.9667C29.2833 14.9845 29.3156 15.0179 29.3322 15.0596C29.3487 15.1012 29.3481 15.1477 29.3304 15.1889C29.3273 15.1961 29.2522 15.3686 29.1099 15.6561C29.0959 15.6844 29.0743 15.7083 29.0474 15.725C29.0206 15.7417 28.9896 15.7505 28.958 15.7505Z" fill="white"/>
<path d="M20.756 23.8858C20.7231 23.8858 20.6909 23.8762 20.6633 23.8582C20.6358 23.8402 20.6141 23.8146 20.6008 23.7844C20.5876 23.7543 20.5834 23.721 20.5888 23.6885C20.5942 23.656 20.609 23.6258 20.6313 23.6016C20.8729 23.3386 21.1027 23.0792 21.3143 22.8308C21.3286 22.8136 21.3462 22.7993 21.3661 22.7889C21.386 22.7785 21.4077 22.7722 21.4301 22.7703C21.4524 22.7684 21.4749 22.7709 21.4963 22.7777C21.5177 22.7846 21.5374 22.7956 21.5545 22.8101C21.5716 22.8247 21.5856 22.8424 21.5958 22.8625C21.6059 22.8825 21.612 22.9043 21.6136 22.9267C21.6153 22.949 21.6125 22.9715 21.6054 22.9928C21.5983 23.0141 21.587 23.0337 21.5723 23.0506C21.358 23.3023 21.1254 23.5648 20.8808 23.831C20.865 23.8483 20.8457 23.8621 20.8242 23.8715C20.8027 23.881 20.7795 23.8858 20.756 23.8858ZM22.0958 22.3054C22.0642 22.3054 22.0332 22.2965 22.0064 22.2798C21.9795 22.2631 21.9579 22.2392 21.9439 22.2108C21.9299 22.1824 21.9242 22.1507 21.9273 22.1193C21.9304 22.0878 21.9422 22.0578 21.9615 22.0327C22.1833 21.7437 22.3833 21.4633 22.556 21.1998C22.5682 21.1811 22.5839 21.1651 22.6023 21.1526C22.6207 21.14 22.6414 21.1312 22.6632 21.1267C22.685 21.1222 22.7075 21.122 22.7293 21.1261C22.7512 21.1302 22.772 21.1387 22.7907 21.1508C22.8093 21.163 22.8253 21.1788 22.8379 21.1972C22.8504 21.2156 22.8592 21.2363 22.8637 21.258C22.8683 21.2798 22.8685 21.3023 22.8643 21.3242C22.8602 21.3461 22.8518 21.3669 22.8396 21.3855C22.6623 21.6561 22.4574 21.9434 22.2304 22.2391C22.2146 22.2597 22.1942 22.2764 22.1709 22.2879C22.1475 22.2994 22.1219 22.3054 22.0958 22.3054ZM23.2674 21.3803C23.2243 21.3802 23.1829 21.3636 23.1516 21.334C23.1202 21.3044 23.1013 21.264 23.0988 21.221C23.0962 21.178 23.1101 21.1356 23.1376 21.1025C23.1652 21.0693 23.2043 21.0479 23.2471 21.0426C23.5746 21.0004 23.8947 20.9134 24.1985 20.7839C24.2399 20.7665 24.2866 20.7663 24.3282 20.7834C24.3698 20.8004 24.403 20.8332 24.4203 20.8747C24.4377 20.9162 24.4379 20.9628 24.4209 21.0044C24.4039 21.0461 24.371 21.0792 24.3296 21.0966C23.9971 21.2379 23.6468 21.333 23.2884 21.3791C23.2815 21.3799 23.2744 21.3803 23.2674 21.3803ZM22.237 21.3456C22.2262 21.3456 22.2154 21.3445 22.2048 21.3425C21.85 21.2723 21.5067 21.1536 21.1844 20.9896C21.1446 20.9692 21.1144 20.9339 21.1005 20.8914C21.0866 20.8489 21.0901 20.8026 21.1101 20.7627C21.1302 20.7227 21.1653 20.6923 21.2077 20.6781C21.2501 20.6638 21.2964 20.6669 21.3365 20.6867C21.631 20.8367 21.9447 20.9453 22.2688 21.0097C22.3102 21.0176 22.3471 21.0407 22.3724 21.0745C22.3977 21.1082 22.4095 21.1501 22.4055 21.1921C22.4015 21.234 22.3821 21.273 22.3509 21.3014C22.3197 21.3298 22.2791 21.3455 22.237 21.3456ZM25.17 20.6095C25.1338 20.6095 25.0985 20.598 25.0694 20.5765C25.0402 20.5551 25.0187 20.5248 25.008 20.4903C24.9972 20.4557 24.9978 20.4186 25.0097 20.3844C25.0216 20.3502 25.0441 20.3207 25.074 20.3002C25.3516 20.1081 25.6149 19.8963 25.8619 19.6662C25.8783 19.6511 25.8974 19.6394 25.9183 19.6317C25.9392 19.624 25.9614 19.6205 25.9836 19.6214C26.0059 19.6222 26.0277 19.6275 26.0479 19.6368C26.0682 19.6461 26.0863 19.6593 26.1014 19.6757C26.1166 19.692 26.1283 19.7112 26.136 19.7321C26.1437 19.7529 26.1472 19.7751 26.1463 19.7974C26.1455 19.8196 26.1402 19.8415 26.1309 19.8617C26.1216 19.8819 26.1084 19.9001 26.092 19.9152C25.8329 20.1562 25.5567 20.3783 25.2656 20.5795C25.2374 20.599 25.2039 20.6095 25.1696 20.6095H25.17ZM23.2159 20.5655C23.1871 20.5655 23.1588 20.5581 23.1337 20.5442C23.1086 20.5302 23.0874 20.5101 23.0722 20.4856C23.057 20.4612 23.0482 20.4334 23.0468 20.4046C23.0453 20.3759 23.0512 20.3473 23.0638 20.3215C23.2147 20.027 23.3267 19.7143 23.3971 19.391C23.4056 19.3469 23.4314 19.308 23.4686 19.2828C23.5059 19.2576 23.5516 19.2483 23.5957 19.2569C23.6399 19.2654 23.6788 19.2911 23.7039 19.3284C23.7291 19.3656 23.7384 19.4114 23.7299 19.4555C23.6539 19.8081 23.5323 20.1493 23.3682 20.4705C23.3542 20.4991 23.3325 20.5231 23.3055 20.5399C23.2785 20.5567 23.2473 20.5656 23.2155 20.5655H23.2159ZM20.4089 20.4244C20.3641 20.4244 20.321 20.4066 20.2893 20.3749C19.9994 20.0862 19.8525 19.7784 19.8525 19.4591C19.8526 19.4083 19.8563 19.3576 19.8639 19.3074C19.8705 19.2629 19.8946 19.2229 19.9307 19.1962C19.9669 19.1695 20.0121 19.1582 20.0566 19.1649C20.101 19.1715 20.141 19.1956 20.1678 19.2317C20.1945 19.2679 20.2058 19.3131 20.1991 19.3576C20.1941 19.3913 20.1915 19.4252 20.1915 19.4593C20.1915 19.6849 20.3049 19.9122 20.5286 20.135C20.5523 20.1587 20.5685 20.1889 20.5751 20.2218C20.5817 20.2547 20.5784 20.2888 20.5656 20.3198C20.5528 20.3508 20.531 20.3773 20.5031 20.396C20.4753 20.4146 20.4425 20.4246 20.4089 20.4246V20.4244ZM26.698 19.2154C26.6655 19.2154 26.6336 19.206 26.6063 19.1884C26.5789 19.1707 26.5572 19.1456 26.5438 19.1159C26.5303 19.0863 26.5257 19.0534 26.5305 19.0212C26.5352 18.989 26.5491 18.9589 26.5706 18.9344C26.7851 18.6892 27.0007 18.4208 27.2113 18.1367C27.2382 18.1009 27.2782 18.0772 27.3224 18.0708C27.3667 18.0644 27.4118 18.0757 27.4477 18.1023C27.4837 18.129 27.5076 18.1688 27.5143 18.213C27.5211 18.2572 27.51 18.3023 27.4836 18.3385C27.2676 18.63 27.0462 18.9056 26.8256 19.1576C26.8097 19.1759 26.79 19.1905 26.7679 19.2004C26.7459 19.2104 26.7219 19.2155 26.6977 19.2154H26.698ZM20.6045 18.6697C20.569 18.6697 20.5343 18.6585 20.5055 18.6377C20.4766 18.6169 20.455 18.5876 20.4438 18.5538C20.4325 18.5201 20.4322 18.4836 20.4428 18.4497C20.4534 18.4157 20.4744 18.386 20.5029 18.3646C20.799 18.1476 21.1316 17.9853 21.4849 17.8855C21.5277 17.8742 21.5732 17.88 21.6117 17.9018C21.6502 17.9235 21.6787 17.9595 21.6911 18.002C21.7034 18.0445 21.6987 18.0901 21.6778 18.1292C21.657 18.1682 21.6217 18.1975 21.5795 18.2109C21.2658 18.3 20.9703 18.4437 20.7066 18.6355C20.6771 18.6577 20.6411 18.6696 20.6042 18.6694L20.6045 18.6697ZM23.4382 18.5904C23.4099 18.5904 23.3821 18.5833 23.3572 18.5698C23.3323 18.5562 23.3113 18.5367 23.2959 18.5129C23.1148 18.2329 22.7836 18.1405 22.5378 18.1123C22.5155 18.11 22.4939 18.1033 22.4742 18.0926C22.4545 18.0818 22.4372 18.0673 22.4231 18.0498C22.4091 18.0324 22.3987 18.0123 22.3925 17.9907C22.3863 17.9692 22.3844 17.9467 22.387 17.9244C22.3895 17.9021 22.3965 17.8806 22.4074 17.861C22.4183 17.8415 22.433 17.8243 22.4507 17.8104C22.4683 17.7966 22.4885 17.7864 22.5101 17.7804C22.5317 17.7744 22.5542 17.7728 22.5765 17.7756C23.0331 17.828 23.3803 18.0197 23.5805 18.3288C23.597 18.3544 23.6064 18.384 23.6075 18.4145C23.6087 18.445 23.6016 18.4752 23.587 18.5019C23.5725 18.5287 23.5509 18.5511 23.5247 18.5666C23.4985 18.5822 23.4686 18.5904 23.4381 18.5904H23.4382ZM27.9366 17.5532C27.9062 17.5532 27.8763 17.5449 27.8502 17.5294C27.824 17.5138 27.8025 17.4915 27.7879 17.4648C27.7734 17.4381 27.7663 17.4079 27.7674 17.3775C27.7685 17.3471 27.7778 17.3175 27.7943 17.2919C27.9761 17.0097 28.1549 16.7137 28.3258 16.4122C28.3366 16.3926 28.3513 16.3755 28.3688 16.3616C28.3864 16.3478 28.4065 16.3375 28.428 16.3315C28.4496 16.3255 28.4721 16.3237 28.4943 16.3264C28.5165 16.3291 28.5379 16.3362 28.5574 16.3472C28.5768 16.3582 28.5939 16.373 28.6076 16.3907C28.6213 16.4083 28.6314 16.4285 28.6373 16.4501C28.6432 16.4716 28.6448 16.4942 28.6419 16.5163C28.639 16.5385 28.6318 16.5599 28.6207 16.5793C28.4466 16.8864 28.2645 17.1878 28.0793 17.4754C28.0639 17.4994 28.0427 17.5191 28.0177 17.5328C27.9927 17.5464 27.9647 17.5535 27.9362 17.5534L27.9366 17.5532Z" fill="white"/>
<path d="M19.6807 25.0058C19.6473 25.0058 19.6145 24.9959 19.5867 24.9773C19.5588 24.9588 19.5371 24.9323 19.5242 24.9014C19.5114 24.8705 19.508 24.8365 19.5144 24.8036C19.5209 24.7708 19.5369 24.7406 19.5605 24.7168C19.6826 24.5948 19.8011 24.4746 19.9162 24.3564C19.9476 24.3242 19.9904 24.3058 20.0354 24.3052C20.0803 24.3046 20.1237 24.3219 20.1559 24.3533C20.1881 24.3847 20.2065 24.4275 20.207 24.4725C20.2076 24.5174 20.1903 24.5608 20.1589 24.593C20.0428 24.7121 19.9233 24.8333 19.8004 24.9563C19.7847 24.972 19.766 24.9845 19.7455 24.993C19.725 25.0015 19.703 25.0058 19.6807 25.0058Z" fill="white"/>
</svg>
