<svg width="34" height="34" viewBox="0 0 34 34" fill="none" xmlns="http://www.w3.org/2000/svg">
<path d="M32.7201 14.595L32.7205 14.5947C33.0394 14.2754 33.2 13.8731 33.2 13.4347V2.05379C33.2 1.3464 32.6546 0.8 31.9474 0.8H10.2632C9.82508 0.8 9.423 0.960938 9.10412 1.28017L1.27957 9.11334C0.960673 9.43251 0.8 9.83499 0.8 10.2734V31.9462C0.8 32.6537 1.34548 33.2 2.05263 33.2H32.4035C32.7284 33.2 32.9778 33.021 33.0839 32.7648C33.1885 32.5121 33.1456 32.2064 32.9443 31.9601L32.938 31.9524L32.931 31.9454L28.3696 27.379C28.3695 27.379 28.3695 27.379 28.3695 27.379C28.0849 27.0941 27.6825 26.934 27.2807 26.934H7.59649C7.2861 26.934 7.02457 26.6725 7.02457 26.3612V12.6619C7.02457 12.3653 7.1427 12.0644 7.38712 11.8197L7.38768 11.8192L11.738 7.42895C11.7381 7.42888 11.7381 7.4288 11.7382 7.42872C11.9773 7.18951 12.3103 7.06609 12.6492 7.06609H26.3333C26.6438 7.06609 26.9053 7.3276 26.9053 7.63885V11.011C26.9053 11.3505 26.7819 11.6841 26.5427 11.9234L22.1273 16.3437C21.9106 16.5276 21.6419 16.642 21.386 16.642H13.4562C12.9244 16.642 12.4842 17.083 12.4842 17.6147V21.9352C12.4842 22.467 12.9244 22.908 13.4562 22.908H23.7018C24.1399 22.908 24.5419 22.7471 24.8608 22.4278L32.7201 14.595Z" fill="white" stroke="#1849A9" stroke-width="0.4"/>
</svg>
