<svg width="222" height="42" viewBox="0 0 222 42" fill="none" xmlns="http://www.w3.org/2000/svg">
<g clip-path="url(#clip0_243_496)">
<path d="M56.1864 31.8979C54.1202 30.8638 52.5705 29.432 51.4579 27.5627C50.3454 25.6934 49.7891 23.5059 49.7891 21.04C49.7891 18.574 50.3454 16.3865 51.4579 14.5172C52.5705 12.6479 54.1599 11.2161 56.1864 10.182C58.2129 9.1479 60.6367 8.63086 63.4182 8.63086C65.9215 8.63086 68.2261 9.18768 70.2526 10.2615C72.3189 11.3752 73.9083 12.9661 75.1003 15.074C76.2924 17.182 76.8884 19.6877 76.8884 22.6309H57.6169C57.8553 24.182 58.5308 25.3354 59.5639 26.1706C60.597 27.0059 61.9083 27.4036 63.4579 27.4036C64.8487 27.4036 66.0805 27.0854 67.0738 26.4093C68.0672 25.7331 68.7427 24.7388 69.1401 23.4263L76.4116 25.6536C75.5374 28.0797 73.948 30.0286 71.7228 31.4206C69.4977 32.8127 66.756 33.5286 63.4977 33.5286C60.6765 33.449 58.2526 32.932 56.1864 31.8979ZM68.9811 18.3752C68.6235 17.1422 67.948 16.2275 66.9944 15.5911C66.0407 14.9547 64.8487 14.6365 63.4579 14.6365C62.0672 14.6365 60.8752 14.9547 59.9215 15.5911C58.9679 16.2275 58.2924 17.1422 57.9348 18.3752H68.9811Z" fill="currentColor"/>
<path d="M85.75 31.8977C83.8825 30.7841 82.4123 29.233 81.3394 27.3239C80.2666 25.4148 79.75 23.3068 79.75 21.0398C79.75 18.6932 80.3063 16.5455 81.4189 14.6364C82.5315 12.7273 84.0414 11.2159 85.9487 10.1023C87.856 8.98864 89.9222 8.47159 92.1871 8.47159C93.697 8.47159 95.1672 8.75 96.5579 9.34659C97.9487 9.94318 99.101 10.858 99.9354 12.0909V0H107.644V32.9318H101.604L99.9354 29.6307C98.9023 30.983 97.75 31.9773 96.4785 32.6136C95.207 33.25 93.7368 33.5682 92.0679 33.5682C89.7235 33.5682 87.6176 33.0114 85.75 31.8977ZM89.2864 25.733C90.5182 26.8466 92.0679 27.3636 93.8957 27.3636C95.7235 27.3636 97.154 26.8068 98.2268 25.733C99.2997 24.6591 99.8162 23.0682 99.8162 21C99.8162 18.9318 99.2997 17.3409 98.2268 16.267C97.154 15.1932 95.7235 14.6364 93.8957 14.6364C92.0281 14.6364 90.5182 15.1932 89.2864 16.267C88.0546 17.3807 87.4189 18.9318 87.4189 20.9602C87.4189 23.0682 88.0546 24.6193 89.2864 25.733Z" fill="currentColor"/>
<path d="M111.539 9.06809H117.579L119.248 12.3692C120.241 11.017 121.552 9.98287 123.181 9.30673C124.811 8.59082 126.519 8.23287 128.347 8.23287C130.056 8.23287 131.645 8.63059 133.115 9.42605C134.585 10.2215 135.738 11.3351 136.532 12.7272C137.407 11.2556 138.638 10.142 140.228 9.3465C141.817 8.55105 143.526 8.15332 145.473 8.15332C148.413 8.19309 150.877 9.06809 152.784 10.8579C154.691 12.6476 155.685 15.6704 155.685 20.0056V32.892H147.976V20.5226C147.976 18.4942 147.539 16.9829 146.625 16.0681C145.711 15.1135 144.44 14.676 142.811 14.676C139.433 14.676 137.764 16.6249 137.764 20.5624V32.9715H130.056V20.5226C130.056 18.534 129.579 17.0226 128.585 16.0681C127.592 15.1135 126.321 14.6363 124.691 14.6363C123.062 14.6363 121.751 15.1135 120.797 16.0681C119.804 17.0226 119.327 18.4942 119.327 20.5226V32.9317H111.579V9.06809H111.539Z" fill="currentColor"/>
<path d="M165.975 32.0567C164.108 31.1817 162.558 29.7897 161.366 27.9204C160.174 26.051 159.578 23.7442 159.578 20.9999C159.578 18.6135 160.095 16.4658 161.168 14.5965C162.24 12.7272 163.671 11.2556 165.538 10.1817C167.406 9.14764 169.512 8.59082 171.817 8.59082C173.525 8.59082 174.995 8.86923 176.307 9.46582C177.618 10.0624 178.73 11.017 179.724 12.3692L181.393 9.06809H187.393V26.409C187.393 27.7215 188.068 28.3976 189.379 28.3976C189.538 28.3976 189.777 28.3579 190.174 28.3181V32.9317C189.062 33.2897 187.909 33.4885 186.757 33.4885C185.128 33.4885 183.697 33.1306 182.426 32.4545C181.154 31.7783 180.28 30.7442 179.803 29.4317C178.929 30.7442 177.737 31.7385 176.267 32.4147C174.797 33.0908 173.326 33.409 171.896 33.409C169.79 33.409 167.843 32.9317 165.975 32.0567ZM169.154 25.6931C170.386 26.8067 171.936 27.3238 173.764 27.3238C175.591 27.3238 177.022 26.767 178.095 25.6931C179.168 24.6192 179.684 23.0283 179.684 20.9601C179.684 18.892 179.168 17.301 178.095 16.2272C177.022 15.1533 175.591 14.5965 173.764 14.5965C171.896 14.5965 170.386 15.1533 169.154 16.2272C167.922 17.3408 167.287 18.892 167.287 20.9204C167.287 23.0283 167.922 24.5795 169.154 25.6931Z" fill="currentColor"/>
<path d="M215.96 10.1021C217.828 11.2157 219.298 12.7669 220.371 14.676C221.444 16.5851 221.96 18.693 221.96 20.96C221.96 23.3066 221.404 25.4544 220.292 27.3635C219.179 29.2726 217.669 30.7839 215.762 31.8975C213.854 33.0112 211.788 33.5282 209.523 33.5282C208.013 33.5282 206.543 33.2498 205.152 32.6532C203.762 32.0566 202.609 31.1419 201.775 29.9089V41.9998H194.066V9.068H200.106L201.775 12.3691C202.808 11.0169 203.96 10.0225 205.232 9.38619C206.503 8.74982 207.974 8.43164 209.643 8.43164C212.027 8.43164 214.093 8.98846 215.96 10.1021ZM203.484 25.693C204.556 26.7669 205.987 27.3237 207.815 27.3237C209.643 27.3237 211.192 26.7669 212.424 25.693C213.656 24.5794 214.292 23.0282 214.292 20.9998C214.292 18.9714 213.656 17.3805 212.424 16.3066C211.192 15.193 209.643 14.676 207.815 14.676C205.987 14.676 204.556 15.2328 203.484 16.3066C202.411 17.3805 201.894 18.9714 201.894 21.0396C201.854 23.0282 202.411 24.6191 203.484 25.693Z" fill="currentColor"/>
<path d="M35.5629 39.0967H1.19205C0.516556 39.0967 0 38.5797 0 37.9035V13.3638C0 12.9263 0.15894 12.5285 0.476821 12.2104L9.33775 3.34104C9.65563 3.02286 10.053 2.86377 10.4901 2.86377H35.0464C35.7219 2.86377 36.2384 3.38081 36.2384 4.05695V16.9433C36.2384 17.3808 36.0795 17.7785 35.7616 18.0967L26.8609 26.966C26.543 27.2842 26.1457 27.4433 25.7086 27.4433H14.106C13.6291 27.4433 13.2318 27.0456 13.2318 26.5683V21.6763C13.2318 21.199 13.6291 20.8013 14.106 20.8013H23.0861C23.4437 20.8013 23.8013 20.6422 24.0795 20.4035L29.0861 15.3922C29.404 15.074 29.5629 14.6365 29.5629 14.199V10.3808C29.5629 9.90354 29.1656 9.50582 28.6887 9.50582H13.1921C12.755 9.50582 12.3179 9.66491 12 9.98309L7.07285 14.9547C6.75497 15.2729 6.59603 15.6706 6.59603 16.0683V31.5797C6.59603 32.057 6.99338 32.4547 7.4702 32.4547H29.7616C30.1589 32.4547 30.5563 32.6138 30.8344 32.8922L36 38.0626C36.3576 38.5001 36.1192 39.0967 35.5629 39.0967Z" fill="currentColor"/>
</g>
<defs>
<clipPath id="clip0_243_496">
<rect width="222" height="42" fill="currentColor"/>
</clipPath>
</defs>
</svg>
