<svg width="16" height="16" viewBox="0 0 16 16" fill="none" xmlns="http://www.w3.org/2000/svg">
<path fill-rule="evenodd" clip-rule="evenodd" d="M13.6569 13.6569C15.1571 12.1566 16 10.1217 16 8C16 5.87827 15.1571 3.84344 13.6569 2.34315C12.1566 0.842855 10.1217 0 8 0C5.87827 0 3.84344 0.842855 2.34315 2.34315C0.842855 3.84344 0 5.87827 0 8C0 10.1217 0.842855 12.1566 2.34315 13.6569C3.84344 15.1571 5.87827 16 8 16C10.1217 16 12.1566 15.1571 13.6569 13.6569ZM10.9897 7.1734C11.0252 7.15077 11.0665 7.13875 11.1087 7.13873H14.5975C14.6397 7.13875 14.6809 7.15077 14.7165 7.1734C14.7521 7.19602 14.7804 7.22831 14.7983 7.26648C14.8162 7.30465 14.8228 7.34713 14.8174 7.38893C14.812 7.43074 14.7948 7.47014 14.7679 7.50252L13.0234 9.59654C13.0026 9.6215 12.9766 9.64158 12.9471 9.65537C12.9177 9.66915 12.8856 9.67629 12.8531 9.67629C12.8206 9.67629 12.7885 9.66915 12.759 9.65537C12.7296 9.64158 12.7035 9.6215 12.6827 9.59654L10.9383 7.50252C10.9113 7.47014 10.8941 7.43074 10.8888 7.38893C10.8834 7.34713 10.89 7.30465 10.9079 7.26648C10.9257 7.22831 10.9541 7.19602 10.9897 7.1734ZM3.6253 8.91332L4.83729 8.91332C4.87943 8.9133 4.92071 8.90128 4.95627 8.87866C4.99183 8.85603 5.02021 8.82374 5.03809 8.78557C5.05596 8.7474 5.06259 8.70492 5.0572 8.66312C5.05181 8.62132 5.03462 8.58192 5.00765 8.54953L3.26323 6.45552C3.24241 6.43055 3.21636 6.41047 3.18692 6.39669C3.15748 6.38291 3.12537 6.37576 3.09287 6.37576C3.06036 6.37576 3.02825 6.38291 2.99881 6.39669C2.96938 6.41047 2.94332 6.43055 2.92251 6.45552L1.17809 8.54953C1.15111 8.58192 1.13392 8.62132 1.12853 8.66312C1.12314 8.70492 1.12977 8.7474 1.14765 8.78557C1.16552 8.82374 1.1939 8.85603 1.22946 8.87866C1.26503 8.90128 1.3063 8.9133 1.34845 8.91332L2.72292 8.91332C2.89361 9.91911 3.34959 10.8547 4.03664 11.6088C4.72369 12.363 5.61288 12.9039 6.59846 13.1673C7.58405 13.4307 8.62454 13.4054 9.59619 13.0945C10.5678 12.7837 11.4298 12.2003 12.0794 11.4137C12.1187 11.3691 12.1487 11.317 12.1675 11.2606C12.1863 11.2041 12.1935 11.1445 12.1888 11.0852C12.1841 11.0259 12.1675 10.9682 12.14 10.9154C12.1126 10.8627 12.0748 10.816 12.0289 10.7782C11.983 10.7403 11.93 10.7121 11.873 10.6951C11.816 10.6782 11.7561 10.6729 11.697 10.6795C11.6379 10.6862 11.5807 10.7046 11.5289 10.7338C11.4771 10.763 11.4317 10.8023 11.3953 10.8494C10.862 11.4951 10.157 11.9767 9.36155 12.2386C8.56614 12.5006 7.71285 12.5321 6.90027 12.3296C6.08768 12.1272 5.34896 11.6989 4.76944 11.0944C4.18993 10.4899 3.79327 9.73373 3.6253 8.91332ZM4.55075 5.20266C5.36439 4.21688 6.59596 3.58956 7.97303 3.58956C8.99569 3.58968 9.98692 3.94297 10.7791 4.58967C11.5713 5.23637 12.1159 6.13681 12.3208 7.13873H13.2231C13.0525 6.13294 12.5965 5.19734 11.9094 4.44321C11.2224 3.68908 10.3332 3.14816 9.34761 2.88477C8.36202 2.62139 7.32153 2.64663 6.34988 2.9575C5.37823 3.26837 4.51631 3.85178 3.86664 4.63834C3.82732 4.68296 3.79737 4.73504 3.77858 4.79147C3.75978 4.8479 3.75253 4.90753 3.75724 4.96682C3.76196 5.02611 3.77854 5.08385 3.80602 5.1366C3.8335 5.18935 3.8713 5.23604 3.91718 5.27389C3.96306 5.31174 4.01609 5.33997 4.0731 5.35692C4.13011 5.37386 4.18995 5.37917 4.24906 5.37253C4.30816 5.36588 4.36533 5.34742 4.41716 5.31824C4.46898 5.28905 4.51441 5.24975 4.55075 5.20266Z" fill="currentColor"/>
</svg>
